<svg width="32" height="30" viewBox="0 0 32 30" fill="none" xmlns="http://www.w3.org/2000/svg">
<path d="M31.7952 0.210296C31.5264 -0.0657175 31.0848 -0.0657175 30.8096 0.210296L16 15.4239L1.18409 0.210296C1.05609 0.0788608 0.876894 0 0.691294 0C0.307295 0 -0.00630373 0.322015 9.62508e-05 0.71632V13.5706C9.62508e-05 13.7612 0.070496 13.9387 0.204896 14.0767L15.5073 29.7897C15.6353 29.9211 15.8144 30 16 30C16.1856 30 16.3584 29.9277 16.4928 29.7897L31.7952 14.0767C31.9232 13.9452 32 13.7612 32 13.5706V0.71632C32 0.525739 31.9296 0.34173 31.7952 0.210296ZM30.6112 13.2815L16 28.2782L1.38889 13.2815V2.43812L15.5073 16.9354C15.776 17.2114 16.2176 17.2114 16.4928 16.9354L30.6112 2.43812V13.2815Z" fill="#64FFDA"/>
</svg>
