<svg width="20" height="20" viewBox="0 0 20 20" fill="none" xmlns="http://www.w3.org/2000/svg">
<path fill-rule="evenodd" clip-rule="evenodd" d="M10 0C4.47671 0 0 4.58975 0 10.2525C0 14.7804 2.86575 18.623 6.83836 19.9825C7.33699 20.078 7.52329 19.7578 7.52329 19.4882C7.52329 19.241 7.51233 18.4376 7.51233 17.5781C4.72877 18.1961 4.14247 16.3703 4.14247 16.3703C3.68767 15.1849 3.03014 14.8703 3.03014 14.8703C2.12055 14.2355 3.09589 14.2468 3.09589 14.2468C4.09863 14.3198 4.63014 15.3029 4.63014 15.3029C5.52329 16.8703 6.96986 16.4152 7.53973 16.1568C7.6274 15.4939 7.89041 15.0445 8.17534 14.7861C5.95616 14.5276 3.61644 13.6456 3.61644 9.7188C3.61644 8.60086 4.00548 7.68516 4.64658 6.96608C4.54247 6.70766 4.20274 5.66275 4.74521 4.25268C4.74521 4.25268 5.58356 3.97741 7.49589 5.30321C8.29589 5.0785 9.15069 4.96052 10 4.96052C10.8493 4.96614 11.7041 5.0785 12.5041 5.30321C14.411 3.97741 15.2493 4.25268 15.2493 4.25268C15.7918 5.66275 15.4521 6.70766 15.3479 6.96608C15.989 7.68516 16.3781 8.60086 16.3781 9.7188C16.3781 13.6569 14.0384 14.522 11.8137 14.7748C12.1699 15.095 12.4932 15.7186 12.4932 16.6736C12.4932 18.0444 12.4822 19.1511 12.4822 19.4882C12.4822 19.7634 12.663 20.078 13.1671 19.9825C17.1397 18.623 20 14.7861 20 10.2525C20 4.58975 15.5233 0 10 0Z" fill="#64FFDA"/>
<path d="M3.7863 14.7186C3.76439 14.7692 3.68767 14.7861 3.61644 14.7524C3.54521 14.7186 3.50137 14.6512 3.52877 14.6007C3.55069 14.5501 3.6274 14.5333 3.69863 14.567C3.76987 14.6007 3.8137 14.6681 3.7863 14.7186Z" fill="#64FFDA"/>
<path d="M4.19178 15.1849C4.14247 15.2299 4.04932 15.2074 3.98904 15.14C3.92329 15.0669 3.91233 14.9714 3.96165 14.9265C4.01096 14.8816 4.09863 14.904 4.16439 14.9714C4.23014 15.0445 4.2411 15.14 4.19178 15.1849Z" fill="#64FFDA"/>
<path d="M4.5863 15.7748C4.52603 15.8197 4.4274 15.7804 4.36164 15.6849C4.30137 15.595 4.30137 15.4827 4.36164 15.4377C4.42192 15.3928 4.52055 15.4321 4.5863 15.522C4.65205 15.6175 4.65205 15.7299 4.5863 15.7748Z" fill="#64FFDA"/>
<path d="M5.12876 16.3422C5.07397 16.404 4.9589 16.3871 4.87123 16.3029C4.78356 16.2186 4.76164 16.1006 4.81643 16.0388C4.87123 15.977 4.99178 15.9939 5.07397 16.0782C5.16164 16.168 5.18356 16.286 5.12876 16.3422Z" fill="#64FFDA"/>
<path d="M5.87397 16.6736C5.85205 16.7523 5.73699 16.7916 5.62192 16.7579C5.50685 16.7242 5.43562 16.6287 5.45753 16.5501C5.47945 16.4714 5.59452 16.4321 5.70959 16.4658C5.81918 16.4995 5.89589 16.595 5.87397 16.6736Z" fill="#64FFDA"/>
<path d="M6.69042 16.7354C6.69589 16.8197 6.59726 16.8927 6.47672 16.8927C6.35617 16.8984 6.26302 16.8253 6.25754 16.7411C6.25754 16.6568 6.35069 16.5838 6.47124 16.5838C6.59178 16.5838 6.69042 16.6512 6.69042 16.7354Z" fill="#64FFDA"/>
<path d="M7.45206 16.6062C7.46849 16.6905 7.3863 16.7748 7.26576 16.7972C7.15069 16.8197 7.0411 16.7691 7.03014 16.6849C7.0137 16.6006 7.10137 16.5163 7.21644 16.4939C7.33151 16.4714 7.43562 16.522 7.45206 16.6062Z" fill="#64FFDA"/>
</svg>
