<svg width="20" height="20" viewBox="0 0 20 20" fill="none" xmlns="http://www.w3.org/2000/svg">
<path d="M0 2.32323C0 1.64982 0.225232 1.09426 0.675676 0.656566C1.12612 0.218848 1.71172 0 2.43243 0C3.14029 0 3.71299 0.215475 4.15058 0.646465C4.60102 1.09091 4.82625 1.67002 4.82625 2.38384C4.82625 3.0303 4.60747 3.56901 4.16988 4C3.71944 4.44444 3.12741 4.66667 2.39382 4.66667H2.37452C1.66666 4.66667 1.09396 4.44444 0.656371 4C0.218784 3.55556 0 2.99663 0 2.32323ZM0.250965 20V6.50505H4.53668V20H0.250965ZM6.9112 20H11.1969V12.4646C11.1969 11.9933 11.2484 11.6296 11.3514 11.3737C11.5315 10.9158 11.805 10.5286 12.1718 10.2121C12.5386 9.89562 12.9987 9.73737 13.5521 9.73737C14.9936 9.73737 15.7143 10.7542 15.7143 12.7879V20H20V12.2626C20 10.2694 19.5496 8.75758 18.6486 7.72727C17.7477 6.69697 16.5573 6.18182 15.0772 6.18182C13.417 6.18182 12.1236 6.92929 11.1969 8.42424V8.46465H11.1776L11.1969 8.42424V6.50505H6.9112C6.93693 6.93602 6.94981 8.27608 6.94981 10.5253C6.94981 12.7744 6.93693 15.9326 6.9112 20Z" fill="#64FFDA"/>
</svg>
