<svg width="40" height="40" viewBox="0 0 40 40" fill="none" xmlns="http://www.w3.org/2000/svg">
<path d="M4.17949 10.866L20 1.73205L35.8205 10.866V29.134L20 38.2679L4.17949 29.134V10.866Z" stroke="#64FFDA" stroke-width="3"/>
<path d="M24.8441 16.8409L23.0373 17.3523C22.9237 17.0511 22.756 16.7585 22.5344 16.4744C22.3185 16.1847 22.0231 15.946 21.6481 15.7585C21.2731 15.571 20.793 15.4773 20.2077 15.4773C19.4066 15.4773 18.739 15.6619 18.2049 16.0312C17.6765 16.3949 17.4123 16.858 17.4123 17.4205C17.4123 17.9205 17.5941 18.3153 17.9577 18.6051C18.3214 18.8949 18.8896 19.1364 19.6623 19.3295L21.6055 19.8068C22.7759 20.0909 23.6481 20.5256 24.2219 21.1108C24.7958 21.6903 25.0827 22.4375 25.0827 23.3523C25.0827 24.1023 24.8668 24.7727 24.435 25.3636C24.0089 25.9545 23.4123 26.4205 22.6452 26.7614C21.8782 27.1023 20.9862 27.2727 19.9691 27.2727C18.6339 27.2727 17.5288 26.983 16.6538 26.4034C15.7788 25.8239 15.2248 24.9773 14.9918 23.8636L16.9009 23.3864C17.0827 24.0909 17.4265 24.6193 17.9322 24.9716C18.4435 25.3239 19.1112 25.5 19.935 25.5C20.8725 25.5 21.6168 25.3011 22.168 24.9034C22.7248 24.5 23.0032 24.017 23.0032 23.4545C23.0032 23 22.8441 22.6193 22.5259 22.3125C22.2077 22 21.7191 21.767 21.06 21.6136L18.8782 21.1023C17.6793 20.8182 16.7987 20.3778 16.2362 19.7812C15.6793 19.179 15.4009 18.4261 15.4009 17.5227C15.4009 16.7841 15.6083 16.1307 16.0231 15.5625C16.4435 14.9943 17.0146 14.5483 17.7362 14.2244C18.4634 13.9006 19.2873 13.7386 20.2077 13.7386C21.5032 13.7386 22.5202 14.0227 23.2589 14.5909C24.0032 15.1591 24.5316 15.9091 24.8441 16.8409Z" fill="#64FFDA"/>
</svg>
