<svg width="22" height="18" viewBox="0 0 22 18" fill="none" xmlns="http://www.w3.org/2000/svg">
<path d="M0 16.4057V1.59429C0 1.57714 0.021215 1.41429 0.0636451 1.10571L7.25554 8.56286L0.0848602 16.92C0.0282867 16.68 0 16.5086 0 16.4057V16.4057ZM0.954677 0.0771428C1.05368 0.0257142 1.1739 0 1.31533 0H20.6847C20.812 0 20.9392 0.0257142 21.0665 0.0771428L13.8534 7.56L12.8987 8.48571L11.0106 10.3629L9.12247 8.48571L8.16779 7.56L0.954677 0.0771428ZM0.975892 17.9229L8.21022 9.51429L11.0106 12.2657L13.811 9.51429L21.0453 17.9229C20.9322 17.9743 20.812 18 20.6847 18H1.31533C1.20219 18 1.08904 17.9743 0.975892 17.9229V17.9229ZM14.7657 8.56286L21.9364 1.10571C21.9788 1.26 22 1.42286 22 1.59429V16.4057C22 16.56 21.9788 16.7314 21.9364 16.92L14.7657 8.56286Z" fill="#64FFDA"/>
</svg>
